<?xml version="1.0" ?><!-- Uploaded to: SVG Repo, www.svgrepo.com, Generator: SVG Repo Mixer Tools -->
<svg fill="#000000" width="800px" height="800px" viewBox="0 0 32 32" data-name="Layer 1" id="Layer_1" xmlns="http://www.w3.org/2000/svg"><title/><path d="M30,12.06a2.78,2.78,0,0,0-.82-2L21.91,2.8a2.9,2.9,0,0,0-4,0l-15,15.06a.88.88,0,0,0-.62.27A.93.93,0,0,0,2,19a1,1,0,0,0,0,.24l.15,9.85a.94.94,0,0,0,.94.92h9.75A.58.58,0,0,0,13,30a.58.58,0,0,0,.18,0,.91.91,0,0,0,.92-.89L29.18,14A2.78,2.78,0,0,0,30,12.06Zm-26.1,9,7,7H4Zm24-8.36L13,27.56,4.43,19,19.26,4.12a1,1,0,0,1,1.32,0l7.28,7.28h0a.94.94,0,0,1,0,1.32Z"/></svg>